# ProBuilder 5.2.3
# https://unity3d.com/unity/features/worldbuilding/probuilder
# 20/10/2024 19:10:14

mtllib ./Shield.mtl
o Shield

g Shield
v -0.5 -0.5000059 -0.02499998
v 1.66893E-06 -0.7824867 -0.02499998
v 0.5 -0.5 -0.02499998
v 0.5 -0.5 0.02499998
v 1.66893E-06 -0.7824867 0.02499998
v -0.5 -0.5000059 0.02499998
v -0.5 0.5 0.025
v 0.5 -0.5 0.025
v -0.5 -0.5 0.025
v 0.5 0.5 0.025
v -0.5 0.5 -0.025
v -0.5 -0.5 -0.025
v 0.5 0.5 -0.025
v 0.5 -0.5 -0.025

vt -0.7133797 -0.1877766
vt 0.3097489 0.4597454
vt 0.09389765 -0.7316966
vt -0.5 0.5
vt 0.5 -0.5
vt -0.5 -0.5
vt 0.5 0.5
vt -0.025 0.5
vt 0.025 -0.5
vt -0.025 -0.5
vt 0.025 0.5
vt 0.5 -0.025
vt -0.5 0.025
vt 0.5 0.025
vt -0.5 -0.025
vt -0.02491121 0.4493187
vt 0.0249112 -0.6729256
vt -0.07207486 -0.6688347
vt 0.07207485 0.4452278

vn 0 0 -1
vn 0 0 1
vn -1 0 0
vn 1 0 0
vn 0 1 0
vn 0.4918975 -0.8706532 0
vn -0.4918872 -0.870659 0

usemtl ShieldMaterial
f 3/3/1 2/2/1 1/1/1
f 6/3/2 5/2/2 4/1/2
f 7/4/2 9/6/2 8/5/2
f 8/5/2 10/7/2 7/4/2
f 11/8/3 12/10/3 9/9/3
f 9/9/3 7/11/3 11/8/3
f 13/4/1 14/6/1 12/5/1
f 12/5/1 11/7/1 13/4/1
f 10/8/4 8/10/4 14/9/4
f 14/9/4 13/11/4 10/8/4
f 11/12/5 7/14/5 10/13/5
f 10/13/5 13/15/5 11/12/5
f 2/16/6 3/18/6 4/17/6
f 4/17/6 5/19/6 2/16/6
f 5/16/7 6/18/7 1/17/7
f 1/17/7 2/19/7 5/16/7

